<svg width="18" height="21" viewBox="0 0 18 21" fill="none" xmlns="http://www.w3.org/2000/svg">
<path fill-rule="evenodd" clip-rule="evenodd" d="M3.09114 15.8323L5.57257 13.758V8.06088C5.57257 5.62802 6.71971 4.44516 9.07828 4.44516C10.5654 4.44516 12.5454 4.82088 12.5454 8.06088V13.758L15.0269 15.8323H3.09114ZM14.7197 12.7423V8.06088C14.7197 5.13802 13.3411 2.99802 10.5911 2.4323C10.5911 2.42088 10.5983 2.4123 10.5983 2.4023C10.5983 1.5523 9.90828 0.862305 9.05971 0.862305C8.20971 0.862305 7.52114 1.5523 7.52114 2.4023C7.52114 2.41516 7.52828 2.42802 7.52828 2.4423C4.794 3.01802 3.39971 5.14945 3.39971 8.06088V12.7423L0.488281 15.1737V18.0052H6.20257C6.20257 19.5837 7.48114 20.8623 9.05971 20.8623C10.6369 20.8623 11.9169 19.5837 11.9169 18.0052H17.6311V15.1737L14.7197 12.7423Z" fill="black"/>
</svg>
