<svg width="20" height="24" viewBox="0 0 20 24" fill="none" xmlns="http://www.w3.org/2000/svg">
<path d="M16.4032 7.70628C16.4045 7.7363 16.3998 7.76628 16.3894 7.79435C16.3791 7.82242 16.3632 7.84799 16.343 7.86948C16.3222 7.89017 16.2977 7.90636 16.2709 7.91707C16.244 7.92779 16.2153 7.93282 16.1866 7.93188H14.1661C14.1546 7.93004 14.1428 7.93104 14.1317 7.93479C14.1207 7.93854 14.1106 7.94494 14.1024 7.95348C14.0941 7.96201 14.088 7.97243 14.0843 7.9839C14.0807 7.99536 14.0797 8.00755 14.0815 8.01948V14.6759C14.0832 14.706 14.0787 14.7361 14.0684 14.7642C14.058 14.7924 14.042 14.818 14.0215 14.8393C14.0009 14.8606 13.9762 14.8771 13.949 14.8879C13.9218 14.8986 13.8928 14.9032 13.8637 14.9015H12.2916C12.2626 14.9025 12.2338 14.8975 12.2067 14.8868C12.1797 14.8761 12.1549 14.8599 12.134 14.8391C12.1139 14.8175 12.0981 14.7919 12.0878 14.7639C12.0774 14.7358 12.0727 14.7059 12.0738 14.6759V8.01948C12.0753 8.0076 12.0742 7.99552 12.0705 7.98417C12.0668 7.97283 12.0606 7.96252 12.0524 7.95404C12.0442 7.94557 12.0343 7.93917 12.0233 7.93532C12.0124 7.93148 12.0007 7.9303 11.9892 7.93188L6.93228 7.91988C6.92081 7.9183 6.90915 7.91948 6.89819 7.92332C6.88724 7.92717 6.87729 7.93357 6.86911 7.94204C6.86093 7.95051 6.85474 7.96082 6.85103 7.97217C6.84732 7.98352 6.84618 7.9956 6.84771 8.00748V9.49548C6.84618 9.50735 6.84732 9.51943 6.85103 9.53078C6.85474 9.54213 6.86093 9.55244 6.86911 9.56091C6.87729 9.56939 6.88724 9.57579 6.89819 9.57963C6.90915 9.58348 6.92081 9.58466 6.93228 9.58308H9.2667C9.29575 9.58154 9.32479 9.58631 9.35195 9.59709C9.37911 9.60787 9.40379 9.62441 9.42441 9.64566C9.44503 9.6669 9.46113 9.69238 9.47168 9.72046C9.48223 9.74853 9.48699 9.77858 9.48566 9.80868V11.1215C9.4868 11.1516 9.48192 11.1816 9.47132 11.2097C9.46072 11.2377 9.44463 11.2632 9.42407 11.2845C9.40351 11.3058 9.37891 11.3224 9.35183 11.3334C9.32474 11.3444 9.29576 11.3495 9.2667 11.3483H6.93228C6.92081 11.3467 6.90915 11.3479 6.89819 11.3517C6.88724 11.3556 6.87729 11.362 6.86911 11.3704C6.86093 11.3789 6.85474 11.3892 6.85103 11.4006C6.84732 11.4119 6.84618 11.424 6.84771 11.4359V14.6759C6.84939 14.706 6.84491 14.7361 6.83456 14.7642C6.82421 14.7924 6.80822 14.818 6.78765 14.8393C6.76708 14.8606 6.74239 14.8771 6.71521 14.8879C6.68802 14.8986 6.65895 14.9032 6.62991 14.9015H5.05779C5.02884 14.9028 4.99993 14.8979 4.97291 14.8871C4.94589 14.8762 4.92134 14.8597 4.90085 14.8384C4.88036 14.8172 4.86436 14.7918 4.85388 14.7638C4.8434 14.7358 4.83867 14.7059 4.83999 14.6759V6.36828C4.83867 6.33829 4.8434 6.30834 4.85388 6.28036C4.86436 6.25237 4.88036 6.22695 4.90085 6.20572C4.92134 6.18449 4.94589 6.16792 4.97291 6.15707C4.99993 6.14621 5.02884 6.14131 5.05779 6.14268H16.1866C16.2153 6.14173 16.244 6.14677 16.2709 6.15748C16.2977 6.1682 16.3222 6.18438 16.343 6.20508C16.3632 6.22656 16.3791 6.25213 16.3894 6.2802C16.3998 6.30828 16.4045 6.33825 16.4032 6.36828V7.70628ZM19.1223 5.42628L14.7894 0.945478C14.3306 0.4713 13.709 0.20502 13.0609 0.205078H7.12344C6.47498 0.204965 5.85295 0.471229 5.39376 0.945478L1.05973 5.42988C0.690085 5.81143 0.481747 6.32934 0.480469 6.86988V13.1999C0.481886 13.8753 0.741863 14.5227 1.20339 14.9999L5.39492 19.3379C5.85257 19.8106 6.47251 20.076 7.1188 20.0759H10.2063L10.2155 23.6759C10.2154 23.7061 10.224 23.7356 10.2402 23.7608C10.2563 23.7859 10.2794 23.8056 10.3063 23.8171C10.3332 23.8287 10.3629 23.8317 10.3915 23.8258C10.4201 23.8199 10.4464 23.8053 10.4669 23.7839L19.1199 14.8559C19.4896 14.4743 19.6979 13.9564 19.6992 13.4159V6.87348C19.6979 6.33294 19.4896 5.81503 19.1199 5.43348" fill="#231F20"/>
</svg>
