<svg xmlns="http://www.w3.org/2000/svg" width="21" height="21" viewBox="0 0 21 21" fill="none">
<path d="M10.5391 0.862305C8.56125 0.862305 6.62786 1.44879 4.98336 2.54761C3.33887 3.64642 2.05715 5.20821 1.30027 7.03547C0.543395 8.86273 0.345362 10.8734 0.731214 12.8132C1.11707 14.753 2.06947 16.5348 3.468 17.9334C4.86652 19.3319 6.64835 20.2843 8.58816 20.6702C10.528 21.056 12.5386 20.858 14.3659 20.1011C16.1932 19.3442 17.7549 18.0625 18.8538 16.418C19.9526 14.7735 20.5391 12.8401 20.5391 10.8623C20.5391 8.21014 19.4855 5.6666 17.6101 3.79124C15.7348 1.91587 13.1912 0.862305 10.5391 0.862305ZM10.5391 19.3623C8.85793 19.3623 7.21454 18.8638 5.81672 17.9298C4.4189 16.9958 3.32944 15.6683 2.68609 14.1151C2.04275 12.5619 1.87442 10.8529 2.20239 9.20404C2.53037 7.5552 3.33991 6.04064 4.52866 4.8519C5.71741 3.66315 7.23196 2.8536 8.8808 2.52563C10.5296 2.19766 12.2387 2.36598 13.7919 3.00933C15.345 3.65267 16.6726 4.74214 17.6066 6.13996C18.5406 7.53778 19.0391 9.18116 19.0391 10.8623C19.0364 13.1158 18.14 15.2763 16.5466 16.8698C14.9531 18.4633 12.7926 19.3597 10.5391 19.3623Z" fill="#ffffff"/>
<path d="M7.06907 10.5723C7.42216 10.5656 7.76718 10.4656 8.06907 10.2823C7.9566 10.1008 7.85959 9.9101 7.77907 9.71231C7.49872 8.97127 7.49872 8.15334 7.77907 7.4123C7.85737 7.2217 7.95101 7.03776 8.05907 6.8623C7.75718 6.67904 7.41216 6.57899 7.05907 6.5723C6.52863 6.5723 6.01993 6.78302 5.64485 7.15809C5.26978 7.53316 5.05907 8.04187 5.05907 8.5723C5.05907 9.10274 5.26978 9.61145 5.64485 9.98652C6.01993 10.3616 6.52863 10.5723 7.05907 10.5723H7.06907Z" fill="#ffffff"/>
<path d="M13.5391 10.2823C13.841 10.4656 14.186 10.5656 14.5391 10.5723C15.0695 10.5723 15.5782 10.3616 15.9533 9.98652C16.3284 9.61145 16.5391 9.10274 16.5391 8.5723C16.5391 8.04187 16.3284 7.53316 15.9533 7.15809C15.5782 6.78302 15.0695 6.5723 14.5391 6.5723C14.186 6.57899 13.841 6.67904 13.5391 6.8623C13.6515 7.04384 13.7485 7.23451 13.8291 7.4323C13.9693 7.79975 14.0438 8.18903 14.0491 8.5823C14.0438 8.97558 13.9693 9.36486 13.8291 9.7323C13.7475 9.92323 13.6506 10.1072 13.5391 10.2823Z" fill="#ffffff"/>
<path d="M6.82907 11.0223C6.06259 11.0223 5.32751 11.3268 4.78553 11.8688C4.24355 12.4107 3.93907 13.1458 3.93907 13.9123V14.5923H6.43907V13.9123C6.44275 12.8402 6.86218 11.8114 7.60907 11.0423H7.29907L6.82907 11.0223Z" fill="#ffffff"/>
<path d="M14.7991 11.0223H14.0191C14.766 11.7914 15.1854 12.8202 15.1891 13.8923V14.5723H17.6891V13.8923C17.6838 13.1293 17.377 12.3993 16.8356 11.8617C16.2942 11.324 15.5621 11.0223 14.7991 11.0223Z" fill="#ffffff"/>
<path d="M12.6891 11.5323C12.2064 11.2006 11.6347 11.0228 11.0491 11.0223H10.5391C9.77259 11.0223 9.03751 11.3268 8.49553 11.8688C7.95355 12.4107 7.64907 13.1458 7.64907 13.9123V14.5923H13.9391V13.9123C13.9408 13.4437 13.8279 12.9818 13.61 12.5669C13.3921 12.152 13.0759 11.7968 12.6891 11.5323Z" fill="#ffffff"/>
<path d="M10.8191 10.5723C11.226 10.5716 11.623 10.4468 11.9572 10.2145C12.2913 9.98219 12.5466 9.65351 12.6891 9.2723C12.8628 8.81491 12.8628 8.3097 12.6891 7.8523C12.546 7.46993 12.2893 7.1405 11.9535 6.90828C11.6177 6.67606 11.2189 6.55217 10.8106 6.55326C10.4023 6.55435 10.0042 6.68036 9.6696 6.91437C9.33504 7.14838 9.08012 7.47917 8.93907 7.8623C8.76538 8.3197 8.76538 8.82491 8.93907 9.2823C9.08371 9.66324 9.34126 9.9909 9.67724 10.2214C10.0132 10.452 10.4116 10.5744 10.8191 10.5723Z" fill="#ffffff"/>
</svg>