<svg width="21" height="21" viewBox="0 0 21 21" fill="none" xmlns="http://www.w3.org/2000/svg">
<path d="M13.5583 10.1123L12.6583 11.0323C11.9383 11.7523 11.4883 12.3623 11.4883 13.8623H9.48828V13.3623C9.48828 12.2523 9.93828 11.2523 10.6583 10.5323L11.8983 9.2723C12.2683 8.9123 12.4883 8.4123 12.4883 7.8623C12.4883 6.7523 11.5883 5.8623 10.4883 5.8623C9.95785 5.8623 9.44914 6.07302 9.07407 6.44809C8.699 6.82316 8.48828 7.33187 8.48828 7.8623H6.48828C6.48828 6.80144 6.90971 5.78402 7.65985 5.03388C8.41 4.28373 9.42741 3.8623 10.4883 3.8623C11.5491 3.8623 12.5666 4.28373 13.3167 5.03388C14.0669 5.78402 14.4883 6.80144 14.4883 7.8623C14.4883 8.7423 14.1283 9.5323 13.5583 10.1123ZM11.4883 17.8623H9.48828V15.8623H11.4883V17.8623ZM10.4883 0.862305C9.17506 0.862305 7.8747 1.12096 6.66145 1.62351C5.44819 2.12606 4.3458 2.86265 3.41721 3.79124C1.54185 5.6666 0.488281 8.21014 0.488281 10.8623C0.488281 13.5145 1.54185 16.058 3.41721 17.9334C4.3458 18.862 5.44819 19.5986 6.66145 20.1011C7.8747 20.6036 9.17506 20.8623 10.4883 20.8623C13.1404 20.8623 15.684 19.8087 17.5593 17.9334C19.4347 16.058 20.4883 13.5145 20.4883 10.8623C20.4883 5.3323 15.9883 0.862305 10.4883 0.862305Z" fill="black"/>
</svg>
