<svg width="24" height="24" viewBox="0 0 24 24" fill="none" xmlns="http://www.w3.org/2000/svg">
<g clip-path="url(#clip0_3720_364546)">
<path fill-rule="evenodd" clip-rule="evenodd" d="M12 2C17.5 2 22 6.5 22 12C22 17.5 17.5 22 12 22C6.5 22 2 17.5 2 12C2 6.5 6.5 2 12 2ZM12 0.5C5.7 0.5 0.5 5.6 0.5 12C0.5 18.4 5.6 23.5 12 23.5C18.4 23.5 23.5 18.4 23.5 12C23.5 5.6 18.4 0.5 12 0.5ZM11.25 7.49999V5.79999H12.75V7.49999H11.25ZM11.25 9V18.2H12.75V9H11.25Z" fill="black"/>
</g>
<defs>
<clipPath id="clip0_3720_364546">
<rect width="24" height="24" fill="white"/>
</clipPath>
</defs>
</svg>
