<svg width="14" height="14" viewBox="0 0 14 14" fill="none" xmlns="http://www.w3.org/2000/svg">
<path fill-rule="evenodd" clip-rule="evenodd" d="M5.5 9.5C3.294 9.5 1.5 7.706 1.5 5.5C1.5 3.294 3.294 1.5 5.5 1.5C7.706 1.5 9.5 3.294 9.5 5.5C9.5 7.706 7.706 9.5 5.5 9.5ZM10.728 9.667L9.869 9.516L9.558 9.204C10.45 8.226 11 6.929 11 5.5C11 2.462 8.537 0 5.5 0C2.462 0 0 2.462 0 5.5C0 8.537 2.462 11 5.5 11C6.929 11 8.227 10.45 9.204 9.558L9.516 9.869L9.667 10.728L12.939 14L14 12.939L10.728 9.667Z" fill="black"/>
<path fill-rule="evenodd" clip-rule="evenodd" d="M5.5 9.5C3.294 9.5 1.5 7.706 1.5 5.5C1.5 3.294 3.294 1.5 5.5 1.5C7.706 1.5 9.5 3.294 9.5 5.5C9.5 7.706 7.706 9.5 5.5 9.5ZM10.728 9.667L9.869 9.516L9.558 9.204C10.45 8.226 11 6.929 11 5.5C11 2.462 8.537 0 5.5 0C2.462 0 0 2.462 0 5.5C0 8.537 2.462 11 5.5 11C6.929 11 8.227 10.45 9.204 9.558L9.516 9.869L9.667 10.728L12.939 14L14 12.939L10.728 9.667Z" fill="black"/>
</svg>
