<svg width="16" height="14" viewBox="0 0 16 14" fill="none" xmlns="http://www.w3.org/2000/svg">
<path fill-rule="evenodd" clip-rule="evenodd" d="M7.24987 8.886H8.74987V5.336H7.24987V8.886ZM7.24987 11.386H8.74987V9.886H7.24987V11.386ZM0.99387 13.033L7.99187 1.001C7.99187 1.001 7.99487 1 7.99987 1L8.00687 1.006L14.9979 13L0.99387 13.033ZM15.8699 12.531L8.87087 0.503C8.67987 0.167 8.33987 0 7.99987 0C7.65987 0 7.31987 0.167 7.12787 0.503L0.12987 12.531C-0.24513 13.188 0.23687 14 1.00087 14H14.9979C15.7639 14 16.2449 13.188 15.8699 12.531Z" fill="black"/>
</svg>
