<svg xmlns="http://www.w3.org/2000/svg" width="21" height="21" viewBox="0 0 21 21" fill="none">
<path fill-rule="evenodd" clip-rule="evenodd" d="M10.3934 10.9355H9.74336C7.50711 10.9355 5.69336 12.7493 5.69336 14.9855V15.9355H14.4434V14.9855C14.4434 12.7493 12.6296 10.9355 10.3934 10.9355ZM10.0684 19.083C5.58836 19.083 1.94336 15.4393 1.94336 10.958C1.94336 6.47801 5.58836 2.83301 10.0684 2.83301C14.5484 2.83301 18.1934 6.47801 18.1934 10.958C18.1934 15.4393 14.5484 19.083 10.0684 19.083ZM10.0684 0.958008C4.54586 0.958008 0.0683594 5.43551 0.0683594 10.958C0.0683594 16.4818 4.54586 20.958 10.0684 20.958C15.5909 20.958 20.0684 16.4818 20.0684 10.958C20.0684 5.43551 15.5909 0.958008 10.0684 0.958008ZM10.0684 10.3105C11.6246 10.3105 12.8809 9.05426 12.8809 7.49801C12.8809 5.94176 11.6246 4.68551 10.0684 4.68551C8.51211 4.68551 7.25586 5.94176 7.25586 7.49801C7.25586 9.05426 8.51211 10.3105 10.0684 10.3105Z" fill="#ffffff"/>
</svg>