<?xml version="1.0" standalone="no"?><!DOCTYPE svg PUBLIC "-//W3C//DTD SVG 1.1//EN" "http://www.w3.org/Graphics/SVG/1.1/DTD/svg11.dtd"><svg t="1683209090514" class="icon" viewBox="0 0 1024 1024" version="1.1" xmlns="http://www.w3.org/2000/svg" p-id="3615" xmlns:xlink="http://www.w3.org/1999/xlink" width="200" height="200"><path d="M494.933333 102.4c-10.24 0-17.066667-6.826667-17.066666-17.066667 0-27.306667-30.72-51.2-68.266667-51.2s-68.266667 23.893333-68.266667 51.2c0 10.24-6.826667 17.066667-17.066666 17.066667S307.2 95.573333 307.2 85.333333C307.2 37.546667 351.573333 0 409.6 0s102.4 37.546667 102.4 85.333333c0 10.24-6.826667 17.066667-17.066667 17.066667z" fill="#333333" p-id="3616"></path><path d="M501.76 887.466667H68.266667c-37.546667 0-68.266667-30.72-68.266667-71.68 0-10.24 3.413333-20.48 6.826667-30.72 20.48-40.96 122.88-262.826667 122.88-440.32 0-153.6 122.88-279.893333 273.066666-279.893334s273.066667 126.293333 273.066667 279.893334c0 20.48 0 44.373333 3.413333 68.266666 0 10.24-6.826667 17.066667-13.653333 20.48-10.24 0-17.066667-6.826667-20.48-13.653333-3.413333-27.306667-3.413333-51.2-3.413333-71.68 0-136.533333-109.226667-245.76-238.933334-245.76s-238.933333 109.226667-238.933333 245.76c0 180.906667-95.573333 392.533333-126.293333 453.973333-3.413333 3.413333-3.413333 10.24-3.413334 13.653334 0 20.48 17.066667 37.546667 34.133334 37.546666h433.493333c10.24 0 17.066667 6.826667 17.066667 17.066667s-6.826667 17.066667-17.066667 17.066667z" fill="#333333" p-id="3617"></path><path d="M95.573333 819.2h-6.826666c-10.24-3.413333-13.653333-13.653333-6.826667-23.893333 34.133333-78.506667 119.466667-276.48 119.466667-447.146667 0-116.053333 92.16-211.626667 204.8-211.626667 10.24 0 17.066667 6.826667 17.066666 17.066667s-10.24 17.066667-20.48 17.066667c-95.573333 0-170.666667 78.506667-170.666666 177.493333 0 177.493333-85.333333 382.293333-122.88 460.8-3.413333 6.826667-10.24 10.24-13.653334 10.24zM378.88 989.866667C303.786667 989.866667 238.933333 935.253333 238.933333 870.4c0-10.24 6.826667-17.066667 17.066667-17.066667h218.453333c10.24 0 17.066667 6.826667 17.066667 17.066667s-6.826667 17.066667-17.066667 17.066667H276.48c10.24 37.546667 54.613333 68.266667 105.813333 68.266666 44.373333 0 81.92-20.48 98.986667-54.613333 3.413333-6.826667 13.653333-10.24 23.893333-6.826667 6.826667 3.413333 10.24 13.653333 6.826667 23.893334-23.893333 44.373333-75.093333 71.68-133.12 71.68zM802.133333 1024c-122.88 0-221.866667-98.986667-221.866666-221.866667s98.986667-221.866667 221.866666-221.866666 221.866667 98.986667 221.866667 221.866666-98.986667 221.866667-221.866667 221.866667z m0-409.6c-102.4 0-187.733333 85.333333-187.733333 187.733333s85.333333 187.733333 187.733333 187.733334 187.733333-85.333333 187.733334-187.733334-85.333333-187.733333-187.733334-187.733333zM1006.933333 614.4c-3.413333 0-10.24 0-13.653333-3.413333l-68.266667-68.266667c-6.826667-6.826667-6.826667-17.066667 0-23.893333s17.066667-6.826667 23.893334 0l68.266666 68.266666c6.826667 6.826667 6.826667 17.066667 0 23.893334 0 3.413333-6.826667 3.413333-10.24 3.413333zM597.333333 614.4c-3.413333 0-10.24 0-13.653333-3.413333-6.826667-6.826667-6.826667-17.066667 0-23.893334l68.266667-68.266666c6.826667-6.826667 17.066667-6.826667 23.893333 0s6.826667 17.066667 0 23.893333l-68.266667 68.266667c0 3.413333-6.826667 3.413333-10.24 3.413333z" fill="#333333" p-id="3618"></path><path d="M870.4 887.466667c-3.413333 0-10.24 0-13.653333-3.413334l-68.266667-68.266666c-3.413333-3.413333-3.413333-6.826667-3.413333-13.653334v-136.533333c0-10.24 6.826667-17.066667 17.066666-17.066667s17.066667 6.826667 17.066667 17.066667v129.706667l64.853333 64.853333c6.826667 6.826667 6.826667 17.066667 0 23.893333-3.413333 3.413333-10.24 3.413333-13.653333 3.413334z" fill="#333333" p-id="3619"></path></svg>