<?xml version="1.0" standalone="no"?><!DOCTYPE svg PUBLIC "-//W3C//DTD SVG 1.1//EN" "http://www.w3.org/Graphics/SVG/1.1/DTD/svg11.dtd"><svg t="1683791341544" class="icon" viewBox="0 0 1024 1024" version="1.1" xmlns="http://www.w3.org/2000/svg" p-id="2645" xmlns:xlink="http://www.w3.org/1999/xlink" width="200" height="200"><path d="M820.1728 720.5888a17.152 17.152 0 0 1-17.152-17.1008V430.4384c0-137.1648-103.8336-242.688-245.4528-254.8736a85.76 85.76 0 0 0-78.7968-52.3776 85.504 85.504 0 0 0-78.6432 52.3776c-141.8752 12.1856-245.5552 117.76-245.5552 254.8736v273.0496c0 9.4208-7.68 17.1008-17.1008 17.1008-47.0528 0-85.3504 38.2464-85.3504 85.3504 0 47.0016 38.2976 85.248 85.3504 85.248h682.7008a85.3504 85.3504 0 0 0 0-170.5984z m-21.248 82.7904H158.5664a16.0768 16.0768 0 0 1 0-32.1024c44.1344 0 80.0768-35.7888 80.0768-79.9744V435.2c0-102.0416 80.7936-176.0256 192.1024-176.0256h32v-32.1024a15.9744 15.9744 0 0 1 32 0v32.1536h32.0512c111.2576 0 192.0512 73.984 192.0512 176.0256v256.1536c0 44.1344 35.9424 79.9744 80.0256 79.9744a16.0256 16.0256 0 0 1 0.0512 32z" fill="#f2f2f2" p-id="2646"></path><path d="M478.7712 976.64c-75.264 0-136.5504-44.288-136.5504-119.5008v-34.1504h273.152v34.1504c0 75.2128-61.3376 119.5008-136.6016 119.5008z m-59.0848-85.4528a68.2496 68.2496 0 0 0 118.2208 0H419.6864z" fill="#f2f2f2" p-id="2647"></path><path d="M906.7008 130.0992a253.6448 253.6448 0 0 1 62.8736 189.44l-49.8688 3.1744a205.4144 205.4144 0 0 0-49.8176-160 204.6464 204.6464 0 0 0-152.6784-69.0688l9.3184-49.152a252.928 252.928 0 0 1 180.1728 85.6064" fill="#f2f2f2" p-id="2648"></path><path d="M846.848 188.8256c29.1328 32.8192 38.5536 76.1344 29.5936 115.9168l-43.9808 2.816a98.3552 98.3552 0 0 0-105.216-118.8864l8.2944-43.4688a130.7136 130.7136 0 0 1 111.3088 43.6224" fill="#f2f2f2" p-id="2649"></path></svg>