<?xml version="1.0" standalone="no"?><!DOCTYPE svg PUBLIC "-//W3C//DTD SVG 1.1//EN" "http://www.w3.org/Graphics/SVG/1.1/DTD/svg11.dtd"><svg t="1683209059208" class="icon" viewBox="0 0 1024 1024" version="1.1" xmlns="http://www.w3.org/2000/svg" p-id="3027" xmlns:xlink="http://www.w3.org/1999/xlink" width="200" height="200"><path d="M997.64 386.36l-69.152-67.56c15.768-33.4 9.872-74.56-17.696-102.144l-63.648-63.64-43.488 43.496-48.672-48.672A270.008 270.008 0 0 0 782 30V0H240v30a270 270 0 0 0 27.016 117.84l-48.536 48.536-43.752-43.24-63.52 63.52c-27.648 27.656-33.488 68.968-17.56 102.416l-67.288 67.288c-35.088 35.088-35.088 92.192 0 127.28a89.44 89.44 0 0 0 37.464 22.448c22.768 166.624 143.744 303.488 305.216 348.512a149.456 149.456 0 0 0-7.04 45.4V1024h300v-94c0-15.816-2.48-31.064-7.04-45.4 161.304-44.976 282.432-181.736 305.216-348.512a89.44 89.44 0 0 0 37.464-22.448c35.088-35.088 35.088-92.192 0-127.28z m-150.488-148.488l21.208 21.208a30.032 30.032 0 0 1 0.008 42.416l-84.872 84.88a30.032 30.032 0 0 1-42.416-0.016l-21.208-21.216 127.28-127.28z m-505.36-79.96c-6.504-12.824-31.84-43.576-39.656-97.912h417.72c-7.808 54.352-33.144 85.064-39.656 97.912l81.024 81.024-42.424 42.424-81.36-81.352c-13.48 7.096-35.072 23.64-72.92 33.376l-22.52 5.8V360h-60V239.184l-22.52-5.8c-37.784-9.728-59.424-26.264-72.696-33.24L304.08 280.976l-42.92-42.424 80.64-80.64z m334.584 165.872L640.16 360h-38.16v-75.376a268.208 268.208 0 0 0 24.96-10.256l49.416 49.416zM452 480a30.032 30.032 0 0 1-30-30V420h180v30A30.032 30.032 0 0 1 572 480h-120z m90 60v90A30.032 30.032 0 0 1 512 660a30.032 30.032 0 0 1-30-30V540h60zM384.032 360l-37.28-36.832 50.048-48.912a268.8 268.8 0 0 0 25.2 10.376V360h-37.968zM153.64 259.08l21.336-21.336 128.528 127.04-22.088 21.096-0.496 0.48a30.032 30.032 0 0 1-42.424 0L153.64 301.504a30.032 30.032 0 0 1 0-42.424zM68.784 471.216a30.04 30.04 0 0 1 0-42.432l63.64-63.64 42.432 42.432-63.64 63.64a30.032 30.032 0 0 1-42.432 0z m331.024 359.36c-145.608-33.76-254.144-152.624-275.824-297.24a89.52 89.52 0 0 0 29.656-19.696l67.288-67.288a90.192 90.192 0 0 0 38.776 8.752c22.928 0 45.864-8.68 63.368-26.048l38.928-37.168v58.112c0 39.112 25.08 72.456 60 84.84V630c0 39.112 25.08 72.456 60 84.84v68.176a150.024 150.024 0 0 0-82.192 47.568zM602 964h-180v-34c0-49.624 40.376-90 90-90s90 40.376 90 90v34z m22.192-133.416a150.024 150.024 0 0 0-82.192-47.568v-68.176c34.92-12.384 60-45.728 60-84.84V534.84c34.92-12.384 60-45.728 60-84.84v-57.872l36.656 36.656a89.712 89.712 0 0 0 63.64 26.32c13.376 0 26.744-2.976 39.048-8.888l69.152 67.56a89.536 89.536 0 0 0 29.52 19.56c-21.68 144.616-130.216 263.472-275.824 297.248zM955.216 471.2a30.032 30.032 0 0 1-42.432 0l-65.384-63.88 42.416-42.432 65.504 63.992a30.04 30.04 0 0 1-0.104 42.32z" fill="#40BEFE" p-id="3028"></path></svg>