<svg width="48" height="48" viewBox="0 0 48 48" fill="none" xmlns="http://www.w3.org/2000/svg">
<path d="M22.6721 4.506C23.0381 4.18098 23.5106 4.00146 24.0001 4.00146C24.4896 4.00146 24.9621 4.18098 25.3281 4.506L43.3281 20.506C43.7044 20.8634 43.927 21.3531 43.9489 21.8716C43.9708 22.3902 43.7902 22.8969 43.4455 23.2848C43.1007 23.6726 42.6186 23.9113 42.1011 23.9504C41.5836 23.9894 41.0712 23.8258 40.6721 23.494L40.0001 22.9V38C40.0001 39.0609 39.5787 40.0783 38.8285 40.8284C38.0784 41.5786 37.061 42 36.0001 42H12.0001C10.9392 42 9.92182 41.5786 9.17167 40.8284C8.42152 40.0783 8.0001 39.0609 8.0001 38V22.9L7.3281 23.494C6.92902 23.8258 6.4166 23.9894 5.8991 23.9504C5.38159 23.9113 4.89953 23.6726 4.55474 23.2848C4.20996 22.8969 4.02945 22.3902 4.05134 21.8716C4.07324 21.3531 4.29583 20.8634 4.6721 20.506L22.6721 4.506ZM12.0001 19.34V38H18.0001V28C18.0001 27.4696 18.2108 26.9609 18.5859 26.5858C18.961 26.2107 19.4697 26 20.0001 26H28.0001C28.5305 26 29.0392 26.2107 29.4143 26.5858C29.7894 26.9609 30.0001 27.4696 30.0001 28V38H36.0001V19.342L24.0001 8.676L12.0001 19.34ZM26.0001 38V30H22.0001V38H26.0001Z" fill="#333333"/>
</svg>
