<svg xmlns="http://www.w3.org/2000/svg" viewBox="25 55 200 200">
  <path d="M 66.3515 201.4979 C 47.5716 168.9705 58.7164 127.3764 91.2444 108.5967 C 101.583 102.6276 113.3106 99.4852 125.2487 99.4852 L 125.2487 105.7937 C 91.1727 105.7937 63.5486 133.418 63.5486 167.4937 C 63.5486 178.3239 66.3996 188.9637 71.815 198.3432 Z M 184.1454 201.4979 C 165.366 234.0254 123.7719 245.1709 91.2444 226.3904 C 80.9058 220.4213 72.3206 211.8367 66.3517 201.4979 L 71.8148 198.3432 C 88.8529 227.8541 126.5874 237.9655 156.0983 220.9271 C 165.4778 215.5126 173.2676 207.7228 178.6821 198.3432 Z M 125.2487 99.4852 C 162.8087 99.4852 193.2572 129.9337 193.2572 167.4937 C 193.2572 179.4318 190.1144 191.1592 184.1454 201.4979 L 178.6821 198.3432 C 195.7205 168.8336 185.6091 131.0975 156.0983 114.06 C 146.7187 108.6446 136.0789 105.7937 125.2487 105.7937 Z M 94.0707 167.5532 C 94.0707 150.3018 108.0562 136.3157 125.3082 136.3157 C 142.5596 136.3157 156.5457 150.3018 156.5457 167.5532 C 156.5457 184.8046 142.5596 198.7907 125.3082 198.7907 C 108.0562 198.7907 94.0707 184.8046 94.0707 167.5532 Z M 98.9497 101.1512 C 98.9497 86.5938 110.7508 74.7927 125.3082 74.7927 C 139.8655 74.7927 151.6667 86.5938 151.6667 101.1512 C 151.6667 115.7086 139.8655 127.5097 125.3082 127.5097 C 110.7508 127.5097 98.9497 115.7086 98.9497 101.1512 Z M 154.8797 200.8137 C 154.8797 185.3687 167.3997 172.8487 182.8447 172.8487 C 198.2897 172.8487 210.8097 185.3687 210.8097 200.8137 C 210.8097 216.2587 198.2897 228.7787 182.8447 228.7787 C 167.3997 228.7787 154.8797 216.2587 154.8797 200.8137 Z M 40.2827 200.7542 C 40.2827 185.54 52.6166 173.2057 67.8312 173.2057 C 83.0458 173.2057 95.3797 185.54 95.3797 200.7542 C 95.3797 215.9683 83.0458 228.3027 67.8312 228.3027 C 52.6166 228.3027 40.2827 215.9683 40.2827 200.7542 Z" fill="#fdfdfd"/>
</svg>