<?xml version="1.0" standalone="no"?><!DOCTYPE svg PUBLIC "-//W3C//DTD SVG 1.1//EN" "http://www.w3.org/Graphics/SVG/1.1/DTD/svg11.dtd"><svg t="1683513388330" class="icon" viewBox="0 0 1024 1024" version="1.1" xmlns="http://www.w3.org/2000/svg" p-id="5702" xmlns:xlink="http://www.w3.org/1999/xlink" width="200" height="200"><path d="M503.168 26.88c0 0-352.64 504.704-352.64 677.888 0 153.472 132.224 280.96 290.432 308.096l12.608-61.12c-125.312-20.8-244.544-116.608-244.544-231.936 0-130.56 294.144-587.584 294.144-587.584s294.144 457.024 294.144 587.584c0 110.336-109.248 202.24-228.352 228.352l-10.24 65.664c161.152-24.704 297.088-153.472 297.088-309.056C855.872 531.648 503.168 26.88 503.168 26.88zM541.12 702.784c-77.056 30.016-83.2-15.04-83.2-15.04l79.168-245.696c-12.992-64.768-60.096-30.08-60.096-30.08S394.496 654.08 367.808 732.8c-26.688 78.72 45.056 75.2 45.056 75.2L556.16 762.88l-83.2 255.616 30.016 0 15.04-30.08c0 0 113.856-190.784 143.232-285.632C684.288 628.416 586.24 685.184 541.12 702.784z" fill="#fafafa" p-id="5703"></path></svg>