<?xml version="1.0" standalone="no"?><!DOCTYPE svg PUBLIC "-//W3C//DTD SVG 1.1//EN" "http://www.w3.org/Graphics/SVG/1.1/DTD/svg11.dtd"><svg t="1683513318253" class="icon" viewBox="0 0 1024 1024" version="1.1" xmlns="http://www.w3.org/2000/svg" p-id="3526" xmlns:xlink="http://www.w3.org/1999/xlink" width="200" height="200"><path d="M941.056 872.448c-20.48-12.288-43.008-13.312-64.512-6.144l-135.168-79.872c2.048-16.384 12.288-30.72 28.672-36.864 24.576-10.24 29.696-33.792 11.264-52.224-18.432-19.456-16.384-49.152 3.072-66.56 20.48-17.408 17.408-40.96-6.144-53.248-23.552-12.288-31.744-40.96-18.432-63.488 13.312-22.528 3.072-45.056-23.552-48.128-26.624-4.096-43.008-28.672-37.888-54.272s-11.264-43.008-37.888-37.888-50.176-12.288-53.248-38.912C604.16 307.2 582.656 296.96 560.128 309.248c-22.528 13.312-51.2 4.096-63.488-19.456-11.264-23.552-35.84-26.624-53.248-7.168-17.408 19.456-47.104 20.48-66.56 2.048-18.432-18.432-43.008-13.312-52.224 10.24-10.24 24.576-37.888 34.816-61.44 23.552-23.552-11.264-45.056 1.024-46.08 26.624-2.048 26.624-24.576 45.056-51.2 41.984-26.624-3.072-41.984 15.36-34.816 40.96 7.168 25.6-8.192 51.2-33.792 56.32-25.6 5.12-34.816 27.648-19.456 50.176 15.36 21.504 8.192 51.2-14.336 64.512-22.528 13.312-23.552 37.888-2.048 53.248 21.504 15.36 24.576 45.056 7.168 65.536-17.408 20.48-10.24 44.032 15.36 51.2 25.6 8.192 37.888 34.816 28.672 59.392-9.216 24.576 4.096 45.056 30.72 44.032 26.624-1.024 47.104 20.48 46.08 47.104-1.024 26.624 18.432 40.96 43.008 31.744 24.576-9.216 51.2 4.096 59.392 29.696 8.192 25.6 30.72 32.768 51.2 15.36 20.48-16.384 50.176-12.288 65.536 8.192 15.36 21.504 39.936 20.48 53.248-2.048 14.336-22.528 43.008-28.672 64.512-13.312 21.504 15.36 44.032 6.144 50.176-19.456 6.144-25.6 31.744-40.96 57.344-33.792 25.6 7.168 44.032-8.192 40.96-34.816-1.024-13.312 3.072-25.6 11.264-34.816l139.264 81.92c4.096 21.504 16.384 40.96 36.864 53.248 36.864 21.504 84.992 9.216 106.496-27.648C990.208 942.08 977.92 893.952 941.056 872.448zM626.688 717.824l-100.352-59.392c-1.024-32.768-17.408-63.488-47.104-80.896-32.768-19.456-71.68-16.384-101.376 2.048l55.296 32.768c19.456 11.264 25.6 37.888 13.312 58.368-12.288 20.48-37.888 27.648-57.344 16.384l-55.296-32.768c-2.048 35.84 14.336 70.656 47.104 90.112 29.696 17.408 65.536 17.408 94.208 2.048l97.28 57.344c-26.624 24.576-58.368 44.032-96.256 53.248-116.736 29.696-235.52-40.96-265.216-156.672-29.696-116.736 40.96-235.52 156.672-265.216s235.52 40.96 266.24 156.672C643.072 633.856 641.024 677.888 626.688 717.824zM674.816 746.496l-20.48-12.288c17.408-47.104 22.528-99.328 8.192-151.552-34.816-134.144-171.008-215.04-305.152-180.224C224.256 436.224 143.36 573.44 178.176 707.584c34.816 134.144 171.008 215.04 305.152 180.224 46.08-12.288 86.016-35.84 116.736-67.584l20.48 12.288c-34.816 36.864-78.848 64.512-132.096 77.824C342.016 948.224 193.536 860.16 155.648 713.728c-37.888-146.432 50.176-295.936 196.608-333.824C498.688 342.016 648.192 430.08 686.08 577.536 701.44 635.904 696.32 694.272 674.816 746.496zM936.96 960.512l-35.84 20.48-34.816-20.48 0-40.96 35.84-20.48 34.816 20.48L936.96 960.512zM601.088 227.328l18.432 11.264c15.36 9.216 27.648 31.744 28.672 50.176l1.024 21.504c1.024 17.408 15.36 29.696 32.768 25.6l20.48-5.12c17.408-4.096 41.984 3.072 55.296 15.36l15.36 14.336c13.312 12.288 31.744 10.24 40.96-5.12l11.264-18.432c9.216-15.36 31.744-27.648 50.176-28.672l21.504-1.024c17.408-1.024 28.672-15.36 25.6-32.768l-5.12-20.48c-4.096-17.408 3.072-41.984 15.36-55.296l14.336-15.36c12.288-13.312 10.24-31.744-5.12-40.96l-18.432-11.264c-15.36-9.216-27.648-31.744-28.672-50.176l-1.024-21.504c-1.024-17.408-15.36-29.696-32.768-25.6l-20.48 5.12C823.296 40.96 798.72 34.816 785.408 22.528l-15.36-14.336c-13.312-12.288-31.744-10.24-40.96 5.12L716.8 31.744c-9.216 15.36-31.744 27.648-50.176 28.672l-21.504 1.024c-17.408 1.024-29.696 15.36-25.6 32.768l5.12 20.48c4.096 17.408-3.072 41.984-15.36 55.296l-14.336 15.36C583.68 198.656 585.728 217.088 601.088 227.328zM772.096 95.232c49.152 0 88.064 39.936 88.064 88.064s-38.912 88.064-88.064 88.064c-49.152 0-88.064-39.936-88.064-88.064C684.032 135.168 722.944 95.232 772.096 95.232z" fill="#fafafa" p-id="3527"></path></svg>