<svg width="22" height="22" viewBox="0 0 22 22" fill="none" xmlns="http://www.w3.org/2000/svg">
<g clip-path="url(#clip0_1195_49783)">
<path fill-rule="evenodd" clip-rule="evenodd" d="M11.0002 1.37549C5.69274 1.37549 1.37524 5.69299 1.37524 11.0005C1.37524 16.3066 5.69274 20.6255 11.0002 20.6255C16.3064 20.6255 20.6252 16.3066 20.6252 11.0005C20.6252 5.69299 16.3064 1.37549 11.0002 1.37549" fill="#AA0000"/>
<path fill-rule="evenodd" clip-rule="evenodd" d="M14.3955 6.14625L11.0007 9.5425L7.60442 6.14625L6.14555 7.60512L9.5418 11L6.14555 14.3962L7.60442 15.8551L11.0007 12.4589L14.3955 15.8551L15.8544 14.3962L12.4582 11L15.8544 7.60512L14.3955 6.14625ZM11.0007 20.625C5.69317 20.625 1.37567 16.3075 1.37567 11C1.37567 5.6925 5.69317 1.375 11.0007 1.375C16.3068 1.375 20.6257 5.6925 20.6257 11C20.6257 16.3075 16.3068 20.625 11.0007 20.625V20.625ZM11.0005 0C4.92436 0 0.000488281 4.92387 0.000488281 11C0.000488281 17.0748 4.92436 22 11.0005 22C17.0752 22 22.0005 17.0748 22.0005 11C22.0005 4.92387 17.0752 0 11.0005 0V0Z" fill="white"/>
</g>
<defs>
<clipPath id="clip0_1195_49783">
<rect width="22" height="22" fill="white"/>
</clipPath>
</defs>
</svg>
