<svg width="32" height="32" viewBox="0 0 32 32" fill="none" xmlns="http://www.w3.org/2000/svg">
<path d="M16 0C12.8355 0 9.74207 0.938383 7.11088 2.69649C4.4797 4.45459 2.42894 6.95345 1.21793 9.87706C0.0069325 12.8007 -0.309921 16.0177 0.307443 19.1214C0.924806 22.2251 2.44866 25.0761 4.6863 27.3137C6.92394 29.5513 9.77486 31.0752 12.8786 31.6926C15.9823 32.3099 19.1993 31.9931 22.1229 30.7821C25.0466 29.5711 27.5454 27.5203 29.3035 24.8891C31.0616 22.2579 32 19.1645 32 16C32 11.7565 30.3143 7.68687 27.3137 4.68629C24.3131 1.68571 20.2435 0 16 0ZM17.6 25.6H14.4V22.4H17.6V25.6ZM17.6 20.8H14.4C14.4 15.6 19.2 16 19.2 12.8C19.2 11.9513 18.8629 11.1374 18.2627 10.5373C17.6626 9.93714 16.8487 9.6 16 9.6C15.1513 9.6 14.3374 9.93714 13.7373 10.5373C13.1371 11.1374 12.8 11.9513 12.8 12.8H9.60001C9.60001 11.1026 10.2743 9.47475 11.4745 8.27452C12.6748 7.07428 14.3026 6.4 16 6.4C17.6974 6.4 19.3253 7.07428 20.5255 8.27452C21.7257 9.47475 22.4 11.1026 22.4 12.8C22.4 16.8 17.6 17.2 17.6 20.8Z" fill="#235D9F"/>
</svg>
