<svg width="24" height="24" viewBox="0 0 24 24" fill="none" xmlns="http://www.w3.org/2000/svg">
<g clip-path="url(#clip0_4797_342789)">
<path fill-rule="evenodd" clip-rule="evenodd" d="M22 12.001C22 6.50101 17.5 2.00101 12 2.00101C6.5 2.00101 2 6.50101 2 12.001C2 17.501 6.5 22.001 12 22.001C17.5 22.001 22 17.501 22 12.001ZM0.5 12.001C0.5 5.60101 5.6 0.501007 12 0.501007C18.3 0.501007 23.5 5.60101 23.5 12.001C23.5 18.301 18.4 23.501 12 23.501C5.6 23.501 0.5 18.401 0.5 12.001ZM13.9 8.40101C13.9 7.30101 13 6.50101 12 6.50101C11 6.50101 10.1 7.30101 10.1 8.40101C10.1 9.50101 10.9 10.301 12 10.301C13.1 10.301 13.9 9.40101 13.9 8.40101ZM15.7 17.001C15.6 15.301 14.1 14.001 12.4 14.001H11.6C9.9 14.001 8.5 15.301 8.3 17.001H15.7ZM8.6 8.40101C8.6 6.50101 10.1 5.00101 12 5.00101C13.9 5.00101 15.4 6.50101 15.4 8.40101C15.4 10.301 13.9 11.801 12 11.801C10.1 11.801 8.6 10.301 8.6 8.40101ZM11.6 12.501H12.4C15.1 12.501 17.2 14.701 17.2 17.401V18.501H6.7V17.401C6.7 14.701 8.9 12.501 11.6 12.501Z" fill="white"/>
</g>
<defs>
<clipPath id="clip0_4797_342789">
<rect width="24" height="24.001" fill="white"/>
</clipPath>
</defs>
</svg>
