<svg width="44" height="44" viewBox="0 0 44 44" fill="none" xmlns="http://www.w3.org/2000/svg">
<path fill-rule="evenodd" clip-rule="evenodd" d="M44 15.7143V0L37.5163 6.48057C33.55 2.49229 28.0814 0 22 0C9.84971 0 0 9.84971 0 22C0 34.1503 9.84971 44 22 44C33.0786 44 42.2211 35.8003 43.7486 25.1429H38.984C37.5037 33.1791 30.4543 39.2857 22 39.2857C12.4677 39.2857 4.71429 31.5323 4.71429 22C4.71429 12.4677 12.4677 4.71429 22 4.71429C26.7709 4.71429 31.0577 6.68171 34.1786 9.82143L28.2857 15.7143H44Z" fill="#235D9F"/>
<path fill-rule="evenodd" clip-rule="evenodd" d="M44 15.7143V0L37.5163 6.48057C33.55 2.49229 28.0814 0 22 0C9.84971 0 0 9.84971 0 22C0 34.1503 9.84971 44 22 44C33.0786 44 42.2211 35.8003 43.7486 25.1429H38.984C37.5037 33.1791 30.4543 39.2857 22 39.2857C12.4677 39.2857 4.71429 31.5323 4.71429 22C4.71429 12.4677 12.4677 4.71429 22 4.71429C26.7709 4.71429 31.0577 6.68171 34.1786 9.82143L28.2857 15.7143H44Z" fill="#235D9F"/>
</svg>
