<svg width="56" height="56" viewBox="0 0 56 56" fill="none" xmlns="http://www.w3.org/2000/svg">
<rect width="56" height="56" fill="#184685"/>
<g clip-path="url(#clip0_1305_49553)">
<path d="M27.9998 31.6798C30.0322 31.6798 31.6798 30.0322 31.6798 27.9998C31.6798 25.9674 30.0322 24.3198 27.9998 24.3198C25.9674 24.3198 24.3198 25.9674 24.3198 27.9998C24.3198 30.0322 25.9674 31.6798 27.9998 31.6798Z" stroke="white" stroke-width="1.5" stroke-miterlimit="10"/>
<path d="M35.93 28.5399V27.4599L38.43 25.5299C38.5504 25.4352 38.6335 25.301 38.6646 25.151C38.6957 25.0009 38.6728 24.8447 38.6 24.7099L36.3 20.6399C36.2261 20.5091 36.1079 20.409 35.9667 20.3577C35.8255 20.3063 35.6706 20.3071 35.53 20.3599L32.53 21.5199C32.1608 21.2621 31.7692 21.0378 31.36 20.8499L30.91 17.7299C30.8884 17.5779 30.8129 17.4388 30.6972 17.3378C30.5816 17.2368 30.4335 17.1808 30.28 17.1799H25.64C25.4868 17.1801 25.3385 17.2343 25.2214 17.3331C25.1043 17.4319 25.0259 17.5689 25 17.7199L24.57 20.8499C24.1703 21.038 23.7887 21.2623 23.43 21.5199L20.43 20.3599C20.2893 20.3071 20.1344 20.3063 19.9932 20.3577C19.852 20.409 19.7338 20.5091 19.66 20.6399L17.4 24.7099C17.3271 24.8447 17.3042 25.0009 17.3353 25.151C17.3664 25.301 17.4495 25.4352 17.57 25.5299L20.05 27.4399C20.05 27.6399 20.05 27.8499 20.05 28.0499V28.5599L17.57 30.4699C17.4495 30.5647 17.3664 30.6989 17.3353 30.8489C17.3042 30.9989 17.3271 31.1551 17.4 31.2899L19.7 35.3599C19.7738 35.4907 19.892 35.5909 20.0332 35.6422C20.1744 35.6935 20.3293 35.6927 20.47 35.6399L23.35 34.5199C23.7365 34.7979 24.1483 35.039 24.58 35.2399L25.01 38.2399C25.0337 38.3901 25.1102 38.5269 25.2256 38.6259C25.341 38.7248 25.4879 38.7794 25.64 38.7799H30.31C30.4635 38.7791 30.6116 38.723 30.7272 38.6221C30.8429 38.5211 30.9184 38.3819 30.94 38.2299L31.37 35.2299C31.8128 35.0183 32.2375 34.7708 32.64 34.4899L35.53 35.6199C35.6706 35.6727 35.8255 35.6735 35.9667 35.6222C36.1079 35.5709 36.2261 35.4707 36.3 35.3399L38.6 31.2699C38.6728 31.1351 38.6957 30.9789 38.6646 30.8289C38.6335 30.6789 38.5504 30.5447 38.43 30.4499L35.93 28.5399Z" stroke="white" stroke-width="1.5" stroke-miterlimit="10"/>
</g>
<defs>
<clipPath id="clip0_1305_49553">
<rect width="24" height="24" fill="white" transform="translate(16 16)"/>
</clipPath>
</defs>
</svg>
