<svg width="48" height="48" viewBox="0 0 48 48" fill="none" xmlns="http://www.w3.org/2000/svg">
<path fill-rule="evenodd" clip-rule="evenodd" d="M24.78 23.946H23.22C17.853 23.946 13.5 28.299 13.5 33.666V35.946H34.5V33.666C34.5 28.299 30.147 23.946 24.78 23.946ZM24 43.5C13.248 43.5 4.5 34.755 4.5 24C4.5 13.248 13.248 4.5 24 4.5C34.752 4.5 43.5 13.248 43.5 24C43.5 34.755 34.752 43.5 24 43.5ZM24 0C10.746 0 0 10.746 0 24C0 37.257 10.746 48 24 48C37.254 48 48 37.257 48 24C48 10.746 37.254 0 24 0ZM24 22.446C27.735 22.446 30.75 19.431 30.75 15.696C30.75 11.961 27.735 8.946 24 8.946C20.265 8.946 17.25 11.961 17.25 15.696C17.25 19.431 20.265 22.446 24 22.446Z" fill="white"/>
</svg>
