<svg width="32" height="32" viewBox="0 0 32 32" fill="none" xmlns="http://www.w3.org/2000/svg">
<g clip-path="url(#clip0_1195_49797)">
<path fill-rule="evenodd" clip-rule="evenodd" d="M16.0005 2.00043C8.28049 2.00043 2.00049 8.28043 2.00049 16.0004C2.00049 23.7184 8.28049 30.0004 16.0005 30.0004C23.7185 30.0004 30.0005 23.7184 30.0005 16.0004C30.0005 8.28043 23.7185 2.00043 16.0005 2.00043" fill="#12850A"/>
<path fill-rule="evenodd" clip-rule="evenodd" d="M13.0259 19.2015L9.98988 16.1655L8.15188 18.0015L13.0359 22.8855L23.8539 11.9575L22.0059 10.1295L13.0259 19.2015ZM15.9999 29.9995C8.27988 29.9995 1.99988 23.7195 1.99988 15.9995C1.99988 8.27954 8.27988 1.99954 15.9999 1.99954C23.7199 1.99954 29.9999 8.27954 29.9999 15.9995C29.9999 23.7195 23.7199 29.9995 15.9999 29.9995V29.9995ZM16 -0.000244141C7.164 -0.000244141 0 7.16176 0 15.9998C0 24.8358 7.164 31.9998 16 31.9998C24.836 31.9998 32 24.8358 32 15.9998C32 7.16176 24.836 -0.000244141 16 -0.000244141V-0.000244141Z" fill="white"/>
</g>
<defs>
<clipPath id="clip0_1195_49797">
<rect width="32" height="32" fill="white"/>
</clipPath>
</defs>
</svg>
