<svg width="24" height="23" viewBox="0 0 24 23" fill="none" xmlns="http://www.w3.org/2000/svg">
<path fill-rule="evenodd" clip-rule="evenodd" d="M14.0012 3.8L13.6012 1.5H10.3012L10.0012 3.8L9.9012 4.5L9.2012 4.8C8.89563 4.95279 8.59006 5.16393 8.32907 5.34427C8.24842 5.4 8.17203 5.45279 8.1012 5.5L7.4012 6L6.6012 5.9L4.4012 5L2.8012 7.7L4.8012 9.2L5.4012 9.7L5.3012 10.5V11.7L5.4012 12.5L4.8012 13L2.8012 14.5L4.4012 17.2L6.6012 16.3L7.4012 16L8.1012 16.4C8.40121 16.7 8.8012 16.9 9.2012 17.1L9.9012 17.4L10.0012 18.2L10.4012 20.5H13.7012L14.0012 18.2L14.1012 17.5L14.8012 17.2C15.2012 17 15.6012 16.8 15.9012 16.5L16.6012 16L17.4012 16.1L19.6012 17L21.2012 14.3L19.2012 12.8L18.6012 12.3L18.7012 11.5V10.3L18.6012 9.5L19.2012 9L21.2012 7.5L19.6012 4.8L17.4012 5.7L16.6012 6L15.9012 5.6C15.6012 5.3 15.2012 5.1 14.8012 4.9L14.1012 4.6L14.0012 3.8ZM9.5012 0H14.4012C14.7012 0 14.9012 0.2 15.1012 0.4L15.6012 3.5C16.1012 3.7 16.6012 4 17.0012 4.3L20.0012 3.1H20.2012C20.4012 3.1 20.6012 3.2 20.7012 3.4L23.1012 7.5C23.3012 7.7 23.2012 8 23.0012 8.2L20.4012 10.3V11.7L23.0012 13.8C23.2012 14 23.2012 14.3 23.1012 14.5L20.7012 18.6C20.6012 18.8 20.4012 18.9 20.2012 18.9H20.0012L17.0012 17.7C16.8613 17.784 16.7292 17.8679 16.6005 17.9497C16.2695 18.1601 15.9613 18.356 15.6012 18.5L15.2012 21.6C15.1012 21.9 14.9012 22.1 14.6012 22.1H9.7012C9.4012 22.1 9.1012 21.9 9.1012 21.6L8.6012 18.5C8.1012 18.3 7.6012 18 7.2012 17.7L4.2012 18.9H4.0012C3.8012 18.9 3.6012 18.8 3.5012 18.6L1.1012 14.5C0.901204 14.3 1.0012 14 1.2012 13.8L3.8012 11.7V10.3L1.2012 8.2C1.0012 8.1 0.901204 7.8 1.1012 7.5L3.5012 3.4C3.6012 3.2 3.8012 3.1 4.0012 3.1H4.2012L7.2012 4.3C7.4012 4.15 7.6262 4.025 7.8512 3.9C8.0762 3.775 8.3012 3.65 8.5012 3.5L9.0012 0.5C9.0012 0.2 9.2012 0 9.5012 0ZM13.8012 9.2C13.3012 8.8 12.7012 8.5 12.0012 8.5C11.3012 8.5 10.7012 8.8 10.2012 9.2C9.20119 10.1 9.20119 11.7 10.2012 12.7C10.7012 13.1 11.3012 13.4 12.0012 13.4C12.7012 13.4 13.3012 13.2 13.8012 12.7C14.8012 11.8 14.8012 10.2 13.8012 9.2ZM9.20119 8.2C10.0012 7.4 11.0012 7 12.0012 7C13.0012 7 14.0012 7.4 14.8012 8.1C16.4012 9.7 16.4012 12.2 14.8012 13.8C14.0012 14.6 13.0012 15 12.0012 15C11.0012 15 10.0012 14.6 9.20119 13.9C7.60119 12.3 7.60119 9.8 9.20119 8.2Z" fill="white"/>
</svg>
