<svg xmlns="http://www.w3.org/2000/svg" fill="none" viewBox="0 0 1024 1024" height="1024" width="1024">
<path fill="url(#paint0_linear_1507_110413)" d="M545.146 238.426H483.682V299.89H545.146V238.426Z"></path>
<path fill="#FEE0BC" d="M578.858 222.994C584.005 225.073 590.994 219.791 594.467 211.194C597.94 202.598 596.583 193.943 591.436 191.863C586.288 189.784 579.3 195.066 575.827 203.663C572.354 212.259 573.711 220.914 578.858 222.994Z"></path>
<path fill="#FEE0BC" d="M451.03 222.897C445.919 225.067 438.84 219.907 435.217 211.373C431.595 202.838 432.801 194.161 437.911 191.992C443.022 189.823 450.101 194.983 453.724 203.517C457.346 212.051 456.14 220.728 451.03 222.897Z"></path>
<path fill="url(#paint1_linear_1507_110413)" d="M516.892 264.202C554.397 264.202 584.8 234.242 584.8 197.285C584.8 160.329 554.397 130.369 516.892 130.369C479.388 130.369 448.985 160.329 448.985 197.285C448.985 234.242 479.388 264.202 516.892 264.202Z"></path>
<path fill="url(#paint2_linear_1507_110413)" d="M582.851 202.043C607.145 169.652 594.998 88.6719 514.018 88.6719C433.038 88.6719 416.843 173.701 449.235 202.043C461.381 165.603 570.703 165.603 582.851 202.043Z"></path>
<path fill="#585449" d="M597 164C595.5 199 558.339 159 512.5 159C466.66 159 427 203 428 159C428 112.608 468.16 80 514 80C559.839 80 598.986 117.651 597 164Z"></path>
<path fill="#747169" d="M594 174.5C594 183.06 557.511 181 512.5 181C467.489 181 431 183.06 431 174.5C431 165.94 467.489 153 512.5 153C557.511 153 594 165.94 594 174.5Z"></path>
<rect fill="#FEE4C3" transform="rotate(10.2556 561.278 907.717)" height="34.4195" width="25.8146" y="907.717" x="561.278"></rect>
<path fill="#7B7B7B" d="M583.717 936.338C573.327 943.114 559.182 939.161 553.409 936.338C544.75 944.808 536.093 970.22 557.74 974.455C579.388 978.691 588.047 957.514 583.717 936.338Z"></path>
<rect fill="#FEE4C3" transform="matrix(-0.984023 0.17804 0.17804 0.984023 474.981 907.717)" height="34.4195" width="25.8146"></rect>
<path fill="#7B7B7B" d="M453.015 936.338C463.152 943.114 476.952 939.161 482.583 936.338C491.031 944.808 499.477 970.22 478.358 974.455C457.239 978.691 448.791 957.514 453.015 936.338Z"></path>
<path fill="#DCDCDC" d="M416.27 557.641C418.197 626.54 420.573 668.571 424.877 745.927C429.18 823.282 431.496 855.935 438.495 926.423L490.496 925.839L502.337 754.522C506.641 698.654 515.247 582.62 515.247 582.62C515.247 582.62 523.854 672.868 532.461 754.522C541.068 836.175 547.955 925.693 547.955 925.693L596.846 925.06C596.846 925.06 605.618 857.662 605.618 745.927C605.618 634.191 605.618 557.646 605.618 557.646L416.27 557.641Z"></path>
<path fill="url(#paint3_linear_1507_110413)" d="M772.854 333.354C768.552 333.355 753.084 326.888 745.466 340.434C737.848 353.979 732 369.456 741.725 374.925C751.45 380.395 769.539 372.317 777.157 358.772C807.337 341.246 805.109 311.833 772.854 333.354Z"></path>
<path fill="url(#paint4_linear_1507_110413)" d="M247.354 330.575C251.656 330.577 267.124 324.11 274.742 337.655C282.359 351.2 288.208 366.677 278.483 372.147C268.758 377.616 251.27 372.701 243.653 359.156C213.472 341.63 215.099 309.055 247.354 330.575Z"></path>
<path fill="url(#paint5_linear_1507_110413)" d="M544.827 273.166C543.492 274.705 542.151 276.102 540.807 277.363C536.275 281.294 529.821 284.946 522.428 287.064C506.123 289.722 491.526 277.822 484.592 268.822C483.88 268.822 480.907 270.063 476.407 273.355C476.354 273.295 476.302 273.235 476.25 273.175C471.742 274.881 467.485 277.334 463.487 280.348C439.832 290.536 396.588 325.058 360.393 406.497C355.938 395.359 339.947 385.373 321.978 374.152C305.243 363.703 286.793 352.181 274.345 337.658C257.135 347.984 247.096 356.302 244.228 359.171C271.476 402.195 329.878 475.336 356.091 475.336C381.211 475.336 400.465 465.07 412.995 450.531C408.833 501.935 403.819 555.864 398.806 568.516C392.55 584.304 504.048 585.744 569.649 579.356C602.151 578.985 625.276 576.091 622.27 568.507C617.245 555.823 612.219 501.654 608.05 450.133C620.571 464.882 639.946 475.336 665.295 475.336C691.508 475.336 749.909 402.195 777.158 359.171C774.29 356.302 764.251 347.984 747.041 337.658C734.593 352.181 716.142 363.703 699.408 374.152C681.438 385.373 665.448 395.359 660.992 406.497C624.445 324.266 580.711 289.869 557.214 280.057C554.017 277.685 550.656 275.673 547.134 274.113C545.966 273.277 545.354 273.178 544.852 273.175L544.827 273.166Z" clip-rule="evenodd" fill-rule="evenodd"></path>
<path fill="#FB955B" d="M553.077 277.594C553.077 277.594 548.781 273.441 544.485 273.441C521.345 295.811 495.135 280.266 484.343 269.29C483.938 268.862 480.047 269.288 475.751 273.44C513.555 306.663 543.053 290.052 553.077 277.594Z"></path>
<defs>
<linearGradient gradientUnits="userSpaceOnUse" y2="299.89" x2="514.414" y1="246.37" x1="514.414" id="paint0_linear_1507_110413">
<stop stop-color="#FFCDA5"></stop>
<stop stop-color="#FFE8D1" offset="1"></stop>
</linearGradient>
<linearGradient gradientUnits="userSpaceOnUse" y2="264.202" x2="516.892" y1="130.369" x1="516.892" id="paint1_linear_1507_110413">
<stop stop-color="#FFF2DF"></stop>
<stop stop-color="#FEE0BC" offset="1"></stop>
</linearGradient>
<linearGradient gradientUnits="userSpaceOnUse" y2="215.978" x2="474.529" y1="124.31" x1="564.164" id="paint2_linear_1507_110413">
<stop stop-color="#777CA7"></stop>
<stop stop-color="#636681" offset="1"></stop>
</linearGradient>
<linearGradient gradientUnits="userSpaceOnUse" y2="337.886" x2="746.899" y1="357.722" x1="782.17" id="paint3_linear_1507_110413">
<stop stop-color="#FEE4C3"></stop>
<stop stop-color="#FFD1AC" offset="1"></stop>
</linearGradient>
<linearGradient gradientUnits="userSpaceOnUse" y2="337.887" x2="277.146" y1="357.724" x1="241.875" id="paint4_linear_1507_110413">
<stop stop-color="#FEE4C3"></stop>
<stop stop-color="#FFD1AC" offset="1"></stop>
</linearGradient>
<linearGradient gradientUnits="userSpaceOnUse" y2="632.261" x2="622.89" y1="242.468" x1="691.753" id="paint5_linear_1507_110413">
<stop stop-color="#FFE194"></stop>
<stop stop-color="#FFBF84" offset="1"></stop>
</linearGradient>
</defs>
</svg>
