<?xml version="1.0" standalone="no"?><!DOCTYPE svg PUBLIC "-//W3C//DTD SVG 1.1//EN" "http://www.w3.org/Graphics/SVG/1.1/DTD/svg11.dtd"><svg t="1683114774331" class="icon" viewBox="0 0 1024 1024" version="1.1" xmlns="http://www.w3.org/2000/svg" p-id="2806" xmlns:xlink="http://www.w3.org/1999/xlink" width="200" height="200"><path d="M919.9 417.7c-22.1-54.8-54.5-103.8-96.4-145.7L579.7 28.1C561.6 10 537.6 0 512 0s-49.6 10-67.7 28.1L200.5 272c-41.9 41.9-74.3 90.9-96.4 145.7C82.8 470.5 72 526.4 72 583.7s10.8 113.2 32.1 166c22.1 54.8 54.5 103.8 96.4 145.7 41.9 41.9 90.9 74.4 145.6 96.5 52.8 21.3 108.6 32.1 165.9 32.1 57.3 0 113.1-10.8 165.9-32.1 54.7-22.1 103.7-54.6 145.6-96.5 41.9-41.9 74.3-90.9 96.4-145.7 21.3-52.8 32.1-108.7 32.1-166s-10.8-113.2-32.1-166z m-55.7 309.5c-19.1 47.3-47.1 89.6-83.2 125.7-36.1 36.2-78.4 64.2-125.6 83.3C609.8 954.7 561.5 964 512 964s-97.8-9.3-143.4-27.8c-47.2-19.1-89.5-47.1-125.6-83.3-36.1-36.2-64.1-78.5-83.2-125.7-18.4-45.7-27.8-94-27.8-143.5s9.3-97.9 27.8-143.5c19.1-47.3 47.1-89.6 83.2-125.7l243.7-244C493.5 63.7 502.5 60 512 60s18.5 3.7 25.3 10.5L781 314.4c36.1 36.2 64.1 78.5 83.2 125.7 18.4 45.7 27.8 94 27.8 143.5s-9.3 98-27.8 143.6z" fill="#9BA1B5" stroke-width="2" p-id="2807"></path><path d="M741.1 514.5c-11.7-11.7-30.8-11.7-42.4 0L581.3 631.9 463.9 514.5c-11.7-11.7-30.8-11.7-42.4 0L282.9 653.1c-11.7 11.7-11.7 30.8 0 42.4 11.7 11.7 30.8 11.7 42.4 0l117.4-117.4 117.4 117.4c11.7 11.7 30.8 11.7 42.4 0l138.6-138.6c11.7-11.7 11.7-30.7 0-42.4z" fill="#9BA1B5" stroke-width="2" p-id="2808"></path></svg>