<?xml version="1.0" standalone="no"?><!DOCTYPE svg PUBLIC "-//W3C//DTD SVG 1.1//EN" "http://www.w3.org/Graphics/SVG/1.1/DTD/svg11.dtd"><svg t="1683114692204" class="icon" viewBox="0 0 1024 1024" version="1.1" xmlns="http://www.w3.org/2000/svg" p-id="1747" xmlns:xlink="http://www.w3.org/1999/xlink" width="200" height="200"><path d="M845.09184 405.36576c-2.60608-5.28896-10.83904-17.74592-31.13472-19.29728a25.87136 25.87136 0 0 0-1.88928-0.06144l-208.99328-1.34144 53.77024-267.27424c0.16384-0.73728 0.2816-1.50016 0.3584-2.23744 1.88928-16.7424-1.47968-29.99808-10.03008-39.43936-7.14752-7.92576-17.3312-12.26752-28.66176-12.26752-12.9792 0-24.26368 5.7344-27.41248 7.49568a26.4704 26.4704 0 0 0-7.3728 6.07232L181.62688 552.8064a24.39168 24.39168 0 0 0-1.7408 2.31424c-6.18496 9.16992-10.20928 23.77216-2.94912 37.20704 3.712 6.87104 13.29152 18.37056 35.69664 18.37056 1.07008 0 2.18112-0.03072 3.36896-0.08192l185.02656-0.12288-103.31136 299.14112a25.6512 25.6512 0 0 0-1.23904 5.28384c-0.5376 4.23424-1.44896 18.94912 9.25184 30.92992 7.01952 7.83872 17.11616 12.19072 28.4672 12.19072 6.95296 0 14.31552-1.58208 22.49216-4.80768a27.01824 27.01824 0 0 0 9.62048-6.51776l471.75168-499.18976c0.98816-1.05472 1.89952-2.19136 2.71872-3.4048 3.15392-4.7104 12.84608-21.38624 4.31104-38.75328z m-475.54048 460.2624l86.3744-250.10176c6.4-16.90112 6.30272-31.08352-0.29696-42.20416-4.99712-8.3712-13.5168-14.21312-22.79936-15.5904a27.15648 27.15648 0 0 0-3.97312-0.3072h-0.01536l-181.376 0.128 349.33248-413.3632-47.82592 237.78304c-3.38432 19.36384 3.2256 32.04608 9.37984 39.26528 12.97408 15.27296 32.24576 16.47104 37.87264 16.47104l176.6912 1.07008-403.36384 426.84928z" fill="#9BA1B5" stroke-width="2" p-id="1748"></path></svg>